<svg width="20" height="29" viewBox="0 0 20 29" fill="none" xmlns="http://www.w3.org/2000/svg">
<path d="M15.2422 13H15.9922C16.2022 13 16.3797 13.0725 16.5247 13.2175C16.6697 13.3625 16.7422 13.54 16.7422 13.75V21.25C16.7422 21.46 16.6697 21.6375 16.5247 21.7825C16.3797 21.9275 16.2022 22 15.9922 22H3.99219C3.78219 22 3.60469 21.9275 3.45969 21.7825C3.31469 21.6375 3.24219 21.46 3.24219 21.25V13.75C3.24219 13.54 3.31469 13.3625 3.45969 13.2175C3.60469 13.0725 3.78219 13 3.99219 13H4.74219V12.25C4.74219 11.3 4.98219 10.415 5.46219 9.595C5.92219 8.805 6.54719 8.18 7.33719 7.72C8.15719 7.24 9.04219 7 9.99219 7C10.9422 7 11.8272 7.24 12.6472 7.72C13.4372 8.18 14.0622 8.805 14.5222 9.595C15.0022 10.415 15.2422 11.3 15.2422 12.25V13ZM4.74219 14.5V20.5H15.2422V14.5H4.74219ZM9.24219 16H10.7422V19H9.24219V16ZM13.7422 13V12.25C13.7422 11.57 13.5747 10.9425 13.2397 10.3675C12.9047 9.7925 12.4497 9.3375 11.8747 9.0025C11.2997 8.6675 10.6722 8.5 9.99219 8.5C9.31219 8.5 8.68469 8.6675 8.10969 9.0025C7.53469 9.3375 7.07969 9.7925 6.74469 10.3675C6.40969 10.9425 6.24219 11.57 6.24219 12.25V13H13.7422Z" fill="#E34C23"/>
</svg>
