<?xml version="1.0" encoding="iso-8859-1"?>
<!-- Uploaded to: SVG Repo, www.svgrepo.com, Generator: SVG Repo Mixer Tools -->
<!DOCTYPE svg PUBLIC "-//W3C//DTD SVG 1.1//EN" "http://www.w3.org/Graphics/SVG/1.1/DTD/svg11.dtd">
<svg fill="#000000" height="800px" width="800px" version="1.1" id="Capa_1" xmlns="http://www.w3.org/2000/svg" xmlns:xlink="http://www.w3.org/1999/xlink" 
	 viewBox="0 0 211.618 211.618" xml:space="preserve">
<path d="M204.118,202.309H7.5c-4.142,0-7.5-3.357-7.5-7.5v-178c0-4.143,3.358-7.5,7.5-7.5s7.5,3.357,7.5,7.5v170.5h189.118
	c4.142,0,7.5,3.357,7.5,7.5S208.26,202.309,204.118,202.309z M188.854,93.754c-1.932-1.413-4.424-1.819-6.703-1.092l-47.875,15.254
	l-16.317-47.958c-0.74-2.176-2.437-3.892-4.604-4.656c-2.166-0.767-4.565-0.495-6.507,0.735L78.768,73.809L43.2,28.261
	c-1.971-2.523-5.325-3.519-8.352-2.476c-3.027,1.042-5.059,3.891-5.059,7.092v133.863c0,4.143,3.358,7.5,7.5,7.5h147.139
	c4.142,0,7.5-3.357,7.5-7.5V99.809C191.928,97.416,190.786,95.167,188.854,93.754z"/>
</svg>