<svg width="20" height="29" viewBox="0 0 20 29" fill="none" xmlns="http://www.w3.org/2000/svg">
<path d="M5.08719 8.83C5.75719 8.25 6.50719 7.8 7.33719 7.48C8.18719 7.16 9.07219 7 9.99219 7C11.0122 7 11.9872 7.195 12.9172 7.585C13.8072 7.965 14.5997 8.5025 15.2947 9.1975C15.9897 9.8925 16.5272 10.685 16.9072 11.575C17.2972 12.505 17.4922 13.48 17.4922 14.5C17.4922 15.29 17.3722 16.055 17.1322 16.795C16.9022 17.515 16.5672 18.185 16.1272 18.805L13.7422 14.5H15.9922C15.9922 13.41 15.7172 12.4 15.1672 11.47C14.6372 10.57 13.9222 9.855 13.0222 9.325C12.0922 8.775 11.0822 8.5 9.99219 8.5C9.20219 8.5 8.44219 8.65 7.71219 8.95C7.01219 9.24 6.38719 9.645 5.83719 10.165L5.08719 8.83ZM14.8972 20.17C14.2272 20.75 13.4772 21.2 12.6472 21.52C11.7972 21.84 10.9122 22 9.99219 22C8.97219 22 7.99719 21.805 7.06719 21.415C6.17719 21.035 5.38469 20.4975 4.68969 19.8025C3.99469 19.1075 3.45719 18.315 3.07719 17.425C2.68719 16.495 2.49219 15.52 2.49219 14.5C2.49219 13.71 2.61219 12.945 2.85219 12.205C3.08219 11.485 3.41719 10.815 3.85719 10.195L6.24219 14.5H3.99219C3.99219 15.59 4.26719 16.6 4.81719 17.53C5.34719 18.43 6.06219 19.145 6.96219 19.675C7.89219 20.225 8.90219 20.5 9.99219 20.5C10.7822 20.5 11.5422 20.35 12.2722 20.05C12.9722 19.76 13.5972 19.355 14.1472 18.835L14.8972 20.17Z" fill="#E34C23"/>
</svg>
