<svg width="12" height="17" viewBox="0 0 12 17" fill="none" xmlns="http://www.w3.org/2000/svg">
<path d="M-0.0078125 16.375C-0.0078125 15.285 0.267187 14.275 0.817187 13.345C1.34719 12.445 2.06219 11.73 2.96219 11.2C3.89219 10.65 4.90219 10.375 5.99219 10.375C7.08219 10.375 8.09219 10.65 9.02219 11.2C9.92219 11.73 10.6372 12.445 11.1672 13.345C11.7172 14.275 11.9922 15.285 11.9922 16.375H10.4922C10.4922 15.565 10.2872 14.81 9.87719 14.11C9.47719 13.43 8.93719 12.89 8.25719 12.49C7.55719 12.08 6.80219 11.875 5.99219 11.875C5.18219 11.875 4.42719 12.08 3.72719 12.49C3.04719 12.89 2.50719 13.43 2.10719 14.11C1.69719 14.81 1.49219 15.565 1.49219 16.375H-0.0078125ZM5.99219 9.625C5.17219 9.625 4.41719 9.42 3.72719 9.01C3.04719 8.61 2.50719 8.07 2.10719 7.39C1.69719 6.7 1.49219 5.945 1.49219 5.125C1.49219 4.305 1.69719 3.55 2.10719 2.86C2.50719 2.18 3.04719 1.64 3.72719 1.24C4.41719 0.83 5.17219 0.625 5.99219 0.625C6.81219 0.625 7.56719 0.83 8.25719 1.24C8.93719 1.64 9.47719 2.18 9.87719 2.86C10.2872 3.55 10.4922 4.305 10.4922 5.125C10.4922 5.945 10.2872 6.7 9.87719 7.39C9.47719 8.07 8.93719 8.61 8.25719 9.01C7.56719 9.42 6.81219 9.625 5.99219 9.625ZM5.99219 8.125C6.53219 8.125 7.03219 7.99 7.49219 7.72C7.95219 7.45 8.31719 7.085 8.58719 6.625C8.85719 6.165 8.99219 5.665 8.99219 5.125C8.99219 4.585 8.85719 4.085 8.58719 3.625C8.31719 3.165 7.95219 2.8 7.49219 2.53C7.03219 2.26 6.53219 2.125 5.99219 2.125C5.45219 2.125 4.95219 2.26 4.49219 2.53C4.03219 2.8 3.66719 3.165 3.39719 3.625C3.12719 4.085 2.99219 4.585 2.99219 5.125C2.99219 5.665 3.12719 6.165 3.39719 6.625C3.66719 7.085 4.03219 7.45 4.49219 7.72C4.95219 7.99 5.45219 8.125 5.99219 8.125Z" fill="#E34C23"/>
</svg>
